<svg width="32" height="32" viewBox="0 0 32 32" fill="none" xmlns="http://www.w3.org/2000/svg">
<g filter="url(#filter0_b_1640_13977)">
<rect width="32" height="32" rx="8.72727" fill="#5865EC"/>
<path d="M23.1381 9.35131C23.1322 9.34 23.1225 9.33114 23.1108 9.32631C21.7492 8.70162 20.3124 8.25616 18.8363 8.00109C18.8229 7.9986 18.809 8.0004 18.7967 8.00623C18.7844 8.01207 18.7742 8.02164 18.7676 8.03359C18.572 8.3887 18.3943 8.75345 18.2355 9.12645C16.6443 8.88491 15.0257 8.88491 13.4345 9.12645C13.2746 8.7525 13.0942 8.38766 12.894 8.03359C12.8872 8.0219 12.8769 8.01255 12.8647 8.00675C12.8524 8.00095 12.8387 7.99898 12.8253 8.00109C11.349 8.25563 9.9121 8.70112 8.55074 9.32635C8.53909 9.33129 8.52925 9.33972 8.5226 9.35049C5.80014 13.4161 5.05436 17.3818 5.42022 21.2984C5.42124 21.308 5.42419 21.3173 5.42889 21.3257C5.43358 21.3342 5.43992 21.3416 5.44754 21.3475C7.0328 22.5213 8.80593 23.4172 10.6913 23.9971C10.7045 24.0011 10.7187 24.0009 10.7319 23.9966C10.7451 23.9923 10.7566 23.9841 10.7649 23.973C11.1699 23.422 11.5287 22.8386 11.8377 22.2286C11.8419 22.2203 11.8444 22.2111 11.8448 22.2017C11.8453 22.1923 11.8437 22.183 11.8403 22.1742C11.8368 22.1655 11.8316 22.1576 11.8249 22.151C11.8181 22.1445 11.8101 22.1394 11.8013 22.1362C11.2355 21.9197 10.6877 21.6587 10.1632 21.3557C10.1536 21.3501 10.1456 21.3423 10.1399 21.3328C10.1341 21.3234 10.1307 21.3127 10.1301 21.3017C10.1294 21.2906 10.1315 21.2796 10.1361 21.2696C10.1407 21.2595 10.1478 21.2508 10.1566 21.2441C10.2669 21.1616 10.3754 21.0767 10.4819 20.9892C10.4912 20.9815 10.5025 20.9766 10.5145 20.975C10.5265 20.9733 10.5387 20.9751 10.5497 20.9801C13.9865 22.5485 17.7072 22.5485 21.1033 20.9801C21.1143 20.9748 21.1267 20.9728 21.1388 20.9743C21.151 20.9757 21.1625 20.9806 21.172 20.9884C21.2786 21.0763 21.3873 21.1616 21.4981 21.2441C21.507 21.2507 21.5141 21.2594 21.5188 21.2694C21.5234 21.2794 21.5256 21.2904 21.525 21.3015C21.5245 21.3125 21.5212 21.3232 21.5155 21.3327C21.5098 21.3422 21.5018 21.3501 21.4923 21.3557C20.969 21.6613 20.4207 21.9221 19.8534 22.1354C19.8446 22.1387 19.8366 22.1439 19.8299 22.1506C19.8233 22.1572 19.8181 22.1652 19.8147 22.174C19.8113 22.1828 19.8099 22.1922 19.8104 22.2016C19.8109 22.2111 19.8134 22.2203 19.8177 22.2286C20.1319 22.8352 20.4902 23.4179 20.8896 23.972C20.8977 23.9834 20.9092 23.9919 20.9224 23.9964C20.9357 24.0009 20.95 24.0011 20.9633 23.997C22.852 23.4191 24.6283 22.5231 26.2155 21.3475C26.2232 21.3419 26.2297 21.3347 26.2344 21.3263C26.2391 21.318 26.242 21.3088 26.2428 21.2992C26.6808 16.7713 25.5095 12.8381 23.1381 9.35131V9.35131ZM12.3509 18.9136C11.3162 18.9136 10.4637 17.9641 10.4637 16.7979C10.4637 15.6318 11.2997 14.6822 12.3509 14.6822C13.4104 14.6822 14.2547 15.64 14.2382 16.7979C14.2382 17.9641 13.4021 18.9136 12.3509 18.9136V18.9136ZM19.3288 18.9136C18.2941 18.9136 17.4415 17.9641 17.4415 16.7979C17.4415 15.6318 18.2776 14.6822 19.3288 14.6822C20.3883 14.6822 21.2326 15.64 21.2161 16.7979C21.2161 17.9641 20.3883 18.9136 19.3288 18.9136Z" fill="white"/>
</g>
<defs>
<filter id="filter0_b_1640_13977" x="-24" y="-24" width="80" height="80" filterUnits="userSpaceOnUse" color-interpolation-filters="sRGB">
<feFlood flood-opacity="0" result="BackgroundImageFix"/>
<feGaussianBlur in="BackgroundImageFix" stdDeviation="12"/>
<feComposite in2="SourceAlpha" operator="in" result="effect1_backgroundBlur_1640_13977"/>
<feBlend mode="normal" in="SourceGraphic" in2="effect1_backgroundBlur_1640_13977" result="shape"/>
</filter>
</defs>
</svg>
