<svg width="32" height="32" viewBox="0 0 32 32" fill="none" xmlns="http://www.w3.org/2000/svg">
<g filter="url(#filter0_b_1640_13979)">
<rect width="32" height="32" rx="8" fill="#1D9BF0"/>
<path d="M25.3048 8.5747C25.2883 8.32784 25.1239 8.11479 24.8875 8.03387C24.6511 7.95295 24.3887 8.01991 24.2214 8.20383C23.7913 8.67664 23.2478 8.99703 22.6961 9.14311C21.9288 8.43465 20.8979 8.00002 19.765 8.00002C17.3336 8.00002 15.3642 9.95218 15.3642 12.3583V12.8996C11.6418 12.6151 9.65118 9.81844 9.11405 8.39962C9.02723 8.17029 8.81118 8.01369 8.56392 8.00087C8.31666 7.98805 8.08524 8.12144 7.97464 8.34054C6.67206 10.9211 6.47137 13.4239 7.41808 15.5552C8.24739 17.4222 9.91522 18.9094 12.2791 19.8947C11.2047 20.6477 9.39658 21.5385 7.28883 21.5385C7.01472 21.5385 6.7729 21.7159 6.69338 21.9753C6.61385 22.2347 6.71535 22.5151 6.94332 22.6656C8.9644 24.0003 11.0826 24.0001 13.0528 24L13.1131 24C19.1618 24 24.0637 19.1431 24.0637 13.1539V12.5652C24.516 12.1106 24.8681 11.6452 25.0839 11.0436C25.3246 10.3723 25.3732 9.59384 25.3048 8.5747Z" fill="white"/>
</g>
<defs>
<filter id="filter0_b_1640_13979" x="-44" y="-44" width="120" height="120" filterUnits="userSpaceOnUse" color-interpolation-filters="sRGB">
<feFlood flood-opacity="0" result="BackgroundImageFix"/>
<feGaussianBlur in="BackgroundImageFix" stdDeviation="22"/>
<feComposite in2="SourceAlpha" operator="in" result="effect1_backgroundBlur_1640_13979"/>
<feBlend mode="normal" in="SourceGraphic" in2="effect1_backgroundBlur_1640_13979" result="shape"/>
</filter>
</defs>
</svg>
