<svg width="25" height="24" viewBox="0 0 25 24" fill="none" xmlns="http://www.w3.org/2000/svg">
<g id="award-svgrepo-com" clip-path="url(#clip0_5_844)">
<g id="Group">
<path id="Vector" fill-rule="evenodd" clip-rule="evenodd" d="M13.4324 7.05263L12.49 4L11.5677 7.03159H8.5L10.9862 8.9263L10.0238 12L12.51 10.1053L14.9963 12L14.0138 8.94738L16.5 7.05263H13.4324Z" fill="white" stroke="black" stroke-width="0.5"/>
<path id="Vector_2" fill-rule="evenodd" clip-rule="evenodd" d="M4.96927 0H20.0308V1.48976H24.5V6.78585C24.5 8.19045 23.942 9.53754 22.9489 10.5308C22.139 11.3405 21.094 11.861 19.9744 12.0256C19.8097 13.1453 19.2894 14.1903 18.4795 15C17.5056 15.9739 16.1915 16.5294 14.8166 16.5506V18.7039C14.8166 18.8798 14.8864 19.0484 15.0107 19.1726C15.1351 19.297 15.3038 19.3669 15.4795 19.3669C16.2915 19.3669 17.0701 19.6894 17.6443 20.2635C18.2184 20.8376 18.541 21.6164 18.541 22.4283V24H6.45904V22.4283C6.45904 21.6164 6.7816 20.8376 7.35573 20.2635C7.92985 19.6894 8.70852 19.3669 9.52049 19.3669C9.69631 19.3669 9.86494 19.297 9.98925 19.1726C10.1136 19.0484 10.1834 18.8798 10.1834 18.7039V16.5506C8.80846 16.5294 7.49434 15.9739 6.52046 15C5.71068 14.1903 5.19023 13.1453 5.0256 12.0256C3.90596 11.861 2.86096 11.3405 2.05119 10.5308C1.05797 9.53754 0.5 8.19045 0.5 6.78585V1.48976H4.96927V0ZM6.6229 1.65362V11.2551C6.6229 12.2212 7.00666 13.1476 7.68975 13.8307C8.37285 14.5139 9.29932 14.8976 10.2654 14.8976H11.8371V18.7039C11.8371 19.3183 11.593 19.9075 11.1586 20.342C10.7241 20.7764 10.1349 21.0205 9.52049 21.0205C9.14713 21.0205 8.78904 21.1688 8.52501 21.4329C8.28036 21.6775 8.13506 22.0029 8.11505 22.3464H16.885C16.865 22.0029 16.7196 21.6775 16.475 21.4329C16.211 21.1688 15.8529 21.0205 15.4795 21.0205C14.8651 21.0205 14.2759 20.7764 13.8415 20.342C13.407 19.9075 13.163 19.3183 13.163 18.7039V14.8976H14.7346C15.7006 14.8976 16.6271 14.5139 17.3102 13.8307C17.9934 13.1476 18.3771 12.2212 18.3771 11.2551V1.65362H6.6229ZM4.96927 3.14339H2.15362V6.78585C2.15362 7.75189 2.53739 8.67836 3.22047 9.36146C3.70515 9.84612 4.31235 10.1801 4.96927 10.3332V3.14339ZM20.0308 10.3332V3.14339H22.8464V6.78585C22.8464 7.75189 22.4626 8.67836 21.7795 9.36146C21.2949 9.84612 20.6876 10.1801 20.0308 10.3332Z" fill="white" stroke="black" stroke-width="0.5"/>
</g>
</g>
<defs>
<clipPath id="clip0_5_844">
<rect width="24" height="24" fill="white" transform="translate(0.5)"/>
</clipPath>
</defs>
</svg>
