<svg width="25" height="24" viewBox="0 0 25 24" fill="none" xmlns="http://www.w3.org/2000/svg">
<g id="coins-stacked-03-svgrepo-com">
<path id="Vector" d="M13.5 5C13.5 6.10457 11.0376 7 8 7C4.96243 7 2.5 6.10457 2.5 5M13.5 5C13.5 3.89543 11.0376 3 8 3C4.96243 3 2.5 3.89543 2.5 5M13.5 5V6.5M2.5 5V17C2.5 18.1046 4.96243 19 8 19M8 11C7.83145 11 7.66468 10.9972 7.5 10.9918C4.69675 10.9 2.5 10.0433 2.5 9M8 15C4.96243 15 2.5 14.1046 2.5 13M22.5 11.5C22.5 12.6046 20.0376 13.5 17 13.5C13.9624 13.5 11.5 12.6046 11.5 11.5M22.5 11.5C22.5 10.3954 20.0376 9.5 17 9.5C13.9624 9.5 11.5 10.3954 11.5 11.5M22.5 11.5V19C22.5 20.1046 20.0376 21 17 21C13.9624 21 11.5 20.1046 11.5 19V11.5M22.5 15.25C22.5 16.3546 20.0376 17.25 17 17.25C13.9624 17.25 11.5 16.3546 11.5 15.25" stroke="white" stroke-width="1.5" stroke-linecap="round" stroke-linejoin="round"/>
</g>
</svg>
