<svg width="25" height="24" viewBox="0 0 25 24" fill="none" xmlns="http://www.w3.org/2000/svg">
<g id="handshake-bold-svgrepo-com" clip-path="url(#clip0_5_864)">
<path id="Vector" d="M24.0188 9.87863L21.7133 5.46336C21.4841 5.02932 21.0945 4.70189 20.6274 4.55074C20.1604 4.3996 19.6529 4.43667 19.2128 4.65408L17.1093 5.70575H16.1176L13.0978 4.33932C12.69 4.15502 12.2299 4.12248 11.8003 4.24759C11.7921 4.24992 11.784 4.2524 11.7759 4.25496L7.7412 5.53063L5.78719 4.55369C5.34714 4.3361 4.83953 4.29891 4.37246 4.45004C3.9054 4.60116 3.51579 4.92866 3.28661 5.36279L0.980947 9.7782C0.865714 9.99892 0.795598 10.2404 0.774689 10.4885C0.75378 10.7366 0.782498 10.9864 0.859167 11.2233C0.935836 11.4602 1.05892 11.6795 1.22124 11.8683C1.38355 12.0571 1.58185 12.2117 1.80456 12.323L4.00173 13.4216L8.64895 17.3425C8.65957 17.3514 8.67037 17.3602 8.68135 17.3687C8.88803 17.5309 9.12669 17.6475 9.38164 17.7108L14.8151 19.0692C14.9624 19.1059 15.1137 19.1245 15.2655 19.1244C15.764 19.1246 16.2422 18.9274 16.5957 18.576L20.0454 15.1262C20.0498 15.1219 20.0535 15.1169 20.0578 15.1124C20.0706 15.0992 20.0826 15.0851 20.0949 15.0712C20.1118 15.0518 20.1283 15.0322 20.1439 15.0117C20.149 15.005 20.1548 14.9993 20.1598 14.9924C20.1668 14.9828 20.1725 14.9725 20.1792 14.9627C20.1849 14.9543 20.1915 14.9465 20.197 14.9379L21.155 13.4437L23.1953 12.4235C23.418 12.3122 23.6163 12.1576 23.7786 11.9687C23.941 11.7799 24.064 11.5607 24.1407 11.3238C24.2174 11.0869 24.2461 10.8371 24.2251 10.5889C24.2042 10.3408 24.1341 10.0993 24.0188 9.87863ZM18.9467 12.7192L15.7866 10.4209C15.592 10.2794 15.3572 10.204 15.1166 10.2058C14.8761 10.2076 14.6424 10.2864 14.4499 10.4307L13.2499 11.3307C12.9248 11.5727 12.5302 11.7034 12.1249 11.7034C11.7196 11.7034 11.3251 11.5727 10.9999 11.3307L10.8376 11.2091L14.0909 7.95575H15.869C15.8708 7.95575 15.8725 7.95602 15.8743 7.95602C15.8768 7.95602 15.8794 7.95577 15.8819 7.95575H16.6933L19.0756 12.5181L18.9467 12.7192ZM5.11052 6.73086L6.09774 7.22447L4.13933 10.9749L3.15212 10.4813L5.11052 6.73086ZM15.1549 16.8349L10.0129 15.5494L6.03946 12.197L8.3964 7.68327L12.3014 6.44861L12.3804 6.48433L8.94091 9.92381C8.75095 10.1138 8.60404 10.3423 8.5101 10.594C8.41616 10.8457 8.3774 11.1146 8.39644 11.3825C8.41548 11.6505 8.49187 11.9112 8.62045 12.1471C8.74902 12.383 8.92678 12.5884 9.14168 12.7496L9.64989 13.1308C10.3653 13.663 11.2332 13.9505 12.1249 13.9505C13.0166 13.9505 13.8846 13.663 14.6 13.1308L15.1352 12.7293L17.5235 14.4662L15.1549 16.8349ZM20.8605 11.0754L18.9021 7.32495L19.8893 6.83134L21.8477 10.5818L20.8605 11.0754ZM11.7163 20.9786C11.6807 21.122 11.6171 21.257 11.5291 21.3758C11.4412 21.4946 11.3308 21.5949 11.204 21.6709C11.0773 21.7469 10.9368 21.7972 10.7906 21.8189C10.6445 21.8405 10.4954 21.8332 10.3521 21.7971L7.52651 21.0908C7.23992 21.0188 6.97428 20.8803 6.75106 20.6867L4.63692 18.8491C4.52528 18.7522 4.43382 18.6343 4.36777 18.502C4.30173 18.3698 4.26239 18.2258 4.25201 18.0784C4.24163 17.9309 4.26041 17.7829 4.30727 17.6427C4.35414 17.5025 4.42817 17.3729 4.52514 17.2614C4.62211 17.1498 4.74011 17.0584 4.87241 16.9925C5.0047 16.9266 5.1487 16.8874 5.29615 16.8771C5.44361 16.8669 5.59165 16.8858 5.73179 16.9327C5.87194 16.9797 6.00146 17.0539 6.11293 17.1509L8.1595 18.9298L10.8978 19.6144C11.0411 19.6502 11.1759 19.7139 11.2947 19.8018C11.4134 19.8898 11.5136 20.0002 11.5896 20.1269C11.6656 20.2536 11.7159 20.394 11.7377 20.5401C11.7594 20.6863 11.7522 20.8353 11.7163 20.9786Z" fill="white" stroke="black" stroke-width="0.8"/>
</g>
<defs>
<clipPath id="clip0_5_864">
<rect width="24" height="24" fill="white" transform="translate(0.5)"/>
</clipPath>
</defs>
</svg>
