<?xml version="1.0" encoding="UTF-8"?>
<svg xmlns="http://www.w3.org/2000/svg" xmlns:xlink="http://www.w3.org/1999/xlink" width="16px" height="16px" viewBox="0 0 16 16" version="1.1">
<g id="surface1">
<path style="fill:none;stroke-width:2;stroke-linecap:round;stroke-linejoin:round;stroke:rgb(100%,100%,100%);stroke-opacity:1;stroke-miterlimit:4;" d="M 14 24.5 C 12.619141 24.5 11.258789 24.226562 9.980469 23.700195 C 8.708984 23.173828 7.553711 22.401367 6.576172 21.423828 C 5.598633 20.446289 4.826172 19.291016 4.299805 18.019531 C 3.773438 16.741211 3.5 15.380859 3.5 14 C 3.5 12.619141 3.773438 11.258789 4.299805 9.980469 C 4.826172 8.708984 5.598633 7.553711 6.576172 6.576172 C 7.553711 5.598633 8.708984 4.826172 9.980469 4.299805 C 11.258789 3.773438 12.619141 3.5 14 3.5 C 16.782227 3.5 19.455078 4.607422 21.423828 6.576172 C 23.392578 8.544922 24.5 11.217773 24.5 14 C 24.5 16.782227 23.392578 19.455078 21.423828 21.423828 C 19.455078 23.392578 16.782227 24.5 14 24.5 Z M 14 24.5 " transform="matrix(0.571429,0,0,0.571429,0,0)"/>
<path style="fill:none;stroke-width:2;stroke-linecap:round;stroke-linejoin:round;stroke:rgb(100%,100%,100%);stroke-opacity:1;stroke-miterlimit:4;" d="M 11.668945 11.668945 C 11.081055 10.5 8.75 10.5 8.168945 11.668945 " transform="matrix(0.571429,0,0,0.571429,0,0)"/>
<path style="fill:none;stroke-width:2;stroke-linecap:round;stroke-linejoin:round;stroke:rgb(100%,100%,100%);stroke-opacity:1;stroke-miterlimit:4;" d="M 19.831055 11.668945 C 19.25 10.5 16.918945 10.5 16.331055 11.668945 " transform="matrix(0.571429,0,0,0.571429,0,0)"/>
<path style="fill:none;stroke-width:2;stroke-linecap:round;stroke-linejoin:round;stroke:rgb(100%,100%,100%);stroke-opacity:1;stroke-miterlimit:4;" d="M 16.918945 17.5 C 16.536133 17.889648 16.084961 18.197266 15.579102 18.40918 C 15.080078 18.614258 14.540039 18.723633 14 18.723633 C 13.459961 18.723633 12.919922 18.614258 12.420898 18.40918 C 11.915039 18.197266 11.463867 17.889648 11.081055 17.5 " transform="matrix(0.571429,0,0,0.571429,0,0)"/>
</g>
</svg>
