<svg width="16" height="16" viewBox="0 0 16 16" fill="none" xmlns="http://www.w3.org/2000/svg">
<g id="Frame" clip-path="url(#clip0_5_1026)">
<path id="Vector" d="M2 8C2 8.78793 2.15519 9.56815 2.45672 10.2961C2.75825 11.0241 3.20021 11.6855 3.75736 12.2426C4.31451 12.7998 4.97595 13.2417 5.7039 13.5433C6.43185 13.8448 7.21207 14 8 14C8.78793 14 9.56815 13.8448 10.2961 13.5433C11.0241 13.2417 11.6855 12.7998 12.2426 12.2426C12.7998 11.6855 13.2417 11.0241 13.5433 10.2961C13.8448 9.56815 14 8.78793 14 8C14 7.21207 13.8448 6.43185 13.5433 5.7039C13.2417 4.97595 12.7998 4.31451 12.2426 3.75736C11.6855 3.20021 11.0241 2.75825 10.2961 2.45672C9.56815 2.15519 8.78793 2 8 2C7.21207 2 6.43185 2.15519 5.7039 2.45672C4.97595 2.75825 4.31451 3.20021 3.75736 3.75736C3.20021 4.31451 2.75825 4.97595 2.45672 5.7039C2.15519 6.43185 2 7.21207 2 8Z" stroke="white" stroke-linecap="round" stroke-linejoin="round"/>
<path id="Vector_2" d="M4.66663 5.66666L6.66663 7.66666" stroke="white" stroke-linecap="round" stroke-linejoin="round"/>
<path id="Vector_3" d="M4.66663 7.66666L6.66663 5.66666" stroke="white" stroke-linecap="round" stroke-linejoin="round"/>
<path id="Vector_4" d="M9.33337 5.66666L11.3334 7.66666" stroke="white" stroke-linecap="round" stroke-linejoin="round"/>
<path id="Vector_5" d="M9.33337 7.66666L11.3334 5.66666" stroke="white" stroke-linecap="round" stroke-linejoin="round"/>
<path id="Vector_6" d="M6.33337 10C6.55063 10.2217 6.80994 10.3979 7.09613 10.5181C7.38231 10.6384 7.68962 10.7003 8.00004 10.7003C8.31047 10.7003 8.61777 10.6384 8.90396 10.5181C9.19014 10.3979 9.44945 10.2217 9.66671 10" stroke="white" stroke-linecap="round" stroke-linejoin="round"/>
</g>
<defs>
<clipPath id="clip0_5_1026">
<rect width="16" height="16" fill="white"/>
</clipPath>
</defs>
</svg>
