<svg xmlns="http://www.w3.org/2000/svg" fill="#fff" width="24" height="24" viewBox="0 0 24 24" aria-hidden="true">
    <path d="M9.53673 7.50762C9.53673 8.62827 8.62827 9.53673 7.50762 9.53673C6.38698 9.53673 5.47852 8.62827 5.47852 7.50762C5.47852 6.38698 6.38698 5.47852 7.50762 5.47852C8.62827 5.47852 9.53673 6.38698 9.53673 7.50762Z" fill="currentColor"></path><path fill-rule="evenodd" clip-rule="evenodd" d="M6.34809 2C3.9467 2 2 3.9467 2 6.34809V15.6239C2 18.0254 3.9467 19.972 6.34809 19.972H11.5424C11.1849 19.1757 10.986 18.2927 10.986 17.3632C10.986 13.8412 13.8412 10.986 17.3632 10.986C18.2927 10.986 19.1757 11.1849 19.9721 11.5424V6.34809C19.9721 3.9467 18.0254 2 15.624 2H6.34809ZM3.73923 6.34809C3.73923 4.90726 4.90726 3.73924 6.34809 3.73924H15.624C17.0648 3.73924 18.2329 4.90726 18.2329 6.34809V11.0223L15.5758 9.36159C14.9179 8.9504 14.0672 9.02469 13.4904 9.5437L9.2034 13.402C8.87504 13.6976 8.40728 13.7808 7.99711 13.6168L6.70936 13.1017C6.12778 12.8691 5.46604 12.9671 4.97693 13.3584L3.73923 14.3485V6.34809Z" fill="currentColor"></path><path fill-rule="evenodd" clip-rule="evenodd" d="M12.7258 17.362C12.7258 14.8006 14.8024 12.7241 17.3638 12.7241C19.9252 12.7241 22.0017 14.8006 22.0017 17.362C22.0017 19.9236 19.9252 22 17.3638 22C14.8024 22 12.7258 19.9236 12.7258 17.362ZM17.3638 14.4633C17.844 14.4633 18.2334 14.8527 18.2334 15.3329V16.4924H19.3929C19.8732 16.4924 20.2625 16.8818 20.2625 17.362C20.2625 17.8424 19.8732 18.2316 19.3929 18.2316H18.2334V19.3911C18.2334 19.8715 17.844 20.2607 17.3638 20.2607C16.8835 20.2607 16.4942 19.8715 16.4942 19.3911V18.2316H15.3347C14.8544 18.2316 14.4651 17.8424 14.4651 17.362C14.4651 16.8818 14.8544 16.4924 15.3347 16.4924H16.4942V15.3329C16.4942 14.8527 16.8835 14.4633 17.3638 14.4633Z"></path>
</svg>