<svg width="28" height="28" viewBox="0 0 28 28" fill="none" xmlns="http://www.w3.org/2000/svg">
<g id="Frame" clip-path="url(#clip0_5_799)">
<path id="Vector" d="M21.4247 5.40868C23.3524 7.33617 24.4549 9.93782 24.4991 12.6635C24.5433 15.3892 23.5257 18.0252 21.6615 20.0142L21.4247 20.2592L16.4745 25.2082C15.8464 25.8359 15.0032 26.2014 14.1157 26.2306C13.2282 26.2599 12.3627 25.9507 11.6947 25.3657L11.5267 25.2082L6.57534 20.258C4.60619 18.2889 3.49994 15.6181 3.49994 12.8333C3.49994 10.0486 4.60619 7.37782 6.57534 5.40868C8.54448 3.43954 11.2152 2.33328 14 2.33328C16.7848 2.33328 19.4555 3.43954 21.4247 5.40868ZM14 9.33335C13.5404 9.33335 13.0853 9.42388 12.6606 9.59977C12.236 9.77566 11.8501 10.0335 11.5251 10.3585C11.2001 10.6835 10.9423 11.0693 10.7664 11.494C10.5905 11.9186 10.5 12.3737 10.5 12.8333C10.5 13.293 10.5905 13.7481 10.7664 14.1727C10.9423 14.5974 11.2001 14.9832 11.5251 15.3082C11.8501 15.6332 12.236 15.891 12.6606 16.0669C13.0853 16.2428 13.5404 16.3333 14 16.3333C14.9283 16.3333 15.8185 15.9646 16.4749 15.3082C17.1313 14.6518 17.5 13.7616 17.5 12.8333C17.5 11.9051 17.1313 11.0148 16.4749 10.3585C15.8185 9.7021 14.9283 9.33335 14 9.33335Z" fill="white"/>
</g>
<defs>
<clipPath id="clip0_5_799">
<rect width="28" height="28" fill="white"/>
</clipPath>
</defs>
</svg>
