<svg width="20" height="21" viewBox="0 0 20 21" fill="none" xmlns="http://www.w3.org/2000/svg">
<g id="Group 25786">
<path id="Vector" d="M4.38348 5.5113C4.38348 4.31481 4.93801 3.16732 5.92507 2.32127C6.91213 1.47521 8.25087 0.999908 9.64678 0.999908C11.0427 0.999908 12.3814 1.47521 13.3685 2.32127C14.3556 3.16732 14.9101 4.31481 14.9101 5.5113V11.7289C14.9101 12.9254 14.3556 14.0729 13.3685 14.919C12.3814 15.765 11.0427 16.2403 9.64678 16.2403C8.25087 16.2403 6.91213 15.765 5.92507 14.919C4.93801 14.0729 4.38348 12.9254 4.38348 11.7289V5.5113Z" stroke="#A1A1AA" stroke-width="1.32688" stroke-linecap="round" stroke-linejoin="round"/>
<g id="Group 25787">
<path id="Vector 1" d="M6.86212 8.06117C6.86212 8.06117 7.7215 7.40677 9.70876 7.44817C11.696 7.48958 12.432 8.06117 12.432 8.06117" stroke="#A1A1AA" stroke-width="0.911151" stroke-linecap="round"/>
<path id="Vector 2" d="M8.10492 9.79412C8.10492 9.79412 8.58078 9.43176 9.68117 9.45469C10.7816 9.47761 11.1891 9.79412 11.1891 9.79412" stroke="#A1A1AA" stroke-width="0.716347" stroke-linecap="round"/>
</g>
<path id="Vector_2" d="M1.00006 10.6012C1.00006 13.1936 1.57472 15.3039 3.26683 17.137C4.95893 18.9701 7.25391 20 9.6469 20C12.0399 20 14.3349 18.9701 16.027 17.137C17.7191 15.3039 18.6697 13.2329 18.6697 10.6012" stroke="#A1A1AA" stroke-width="1.32688" stroke-linecap="round" stroke-linejoin="round"/>
</g>
</svg>
