<svg width="25" height="24" viewBox="0 0 25 24" fill="none" xmlns="http://www.w3.org/2000/svg">
<path d="M8.67993 9.15999H13.4499" stroke="white" stroke-width="1.5" stroke-miterlimit="10" stroke-linecap="square"/>
<path d="M8.67993 12.98H13.4499" stroke="white" stroke-width="1.5" stroke-miterlimit="10" stroke-linecap="square"/>
<path d="M8.67993 16.8H13.4499" stroke="white" stroke-width="1.5" stroke-miterlimit="10" stroke-linecap="square"/>
<path d="M20.14 22.52H4.86C4.48442 22.52 4.11252 22.446 3.76553 22.3023C3.41853 22.1586 3.10325 21.9479 2.83767 21.6823C2.30132 21.146 2 20.4185 2 19.66V2.48L4.5 4.39L7.09 2.48L9.63 4.39L12.18 2.48L14.72 4.39L17.27 2.48V19.66C17.2727 20.4194 17.5762 21.1469 18.1141 21.6829C18.6521 22.219 19.3806 22.52 20.14 22.52Z" stroke="white" stroke-width="1.5" stroke-miterlimit="10" stroke-linecap="square"/>
<path d="M4.86011 9.15999H6.77011" stroke="white" stroke-width="1.5" stroke-miterlimit="10"/>
<path d="M4.86011 12.98H6.77011" stroke="white" stroke-width="1.5" stroke-miterlimit="10"/>
<path d="M4.86011 16.8H6.77011" stroke="white" stroke-width="1.5" stroke-miterlimit="10"/>
<path d="M19.18 10.11H23V19.66C22.9568 20.3906 22.6362 21.0771 22.1036 21.5791C21.5711 22.0811 20.8669 22.3607 20.135 22.3607C19.4032 22.3607 18.699 22.0811 18.1664 21.5791C17.6339 21.0771 17.3132 20.3906 17.27 19.66V10.11H19.18Z" stroke="white" stroke-width="1.5" stroke-miterlimit="10"/>
</svg>
